<svg xmlns="http://www.w3.org/2000/svg" width="640" height="160" viewBox="0 0 640 160" role="img" aria-label="Neo Code wordmark">
  <rect width="640" height="160" rx="24" fill="#080808"/>
  <rect x="8" y="8" width="624" height="144" rx="18" fill="none" stroke="#2f2f2f" stroke-width="2"/>
  <svg x="30" y="28" width="128" height="104" viewBox="0 0 256 208">
    <g shape-rendering="crispEdges">
      <rect x="32" y="16" width="48" height="64" fill="#d97824"/>
      <rect x="176" y="16" width="48" height="64" fill="#d97824"/>
      <rect x="48" y="32" width="32" height="48" fill="#f2dfbc"/>
      <rect x="176" y="32" width="32" height="48" fill="#f2dfbc"/>
      <rect x="64" y="64" width="128" height="80" fill="#d97824"/>
      <rect x="48" y="80" width="160" height="48" fill="#d97824"/>
      <rect x="64" y="128" width="128" height="32" fill="#d97824"/>
      <rect x="80" y="128" width="96" height="48" fill="#f2dfbc"/>
      <rect x="64" y="144" width="128" height="32" fill="#f2dfbc"/>
      <rect x="96" y="80" width="16" height="16" fill="#f2dfbc"/>
      <rect x="112" y="96" width="16" height="16" fill="#f2dfbc"/>
      <rect x="96" y="112" width="16" height="16" fill="#f2dfbc"/>
      <rect x="128" y="112" width="32" height="16" fill="#f2dfbc"/>
      <rect x="80" y="128" width="16" height="32" fill="#050505"/>
      <rect x="160" y="128" width="16" height="32" fill="#050505"/>
      <rect x="112" y="160" width="32" height="16" fill="#050505"/>
    </g>
  </svg>
  <text x="188" y="82" fill="#f6f6f6" font-family="IBM Plex Mono, DejaVu Sans Mono, monospace" font-size="48" letter-spacing="4" font-weight="500">NEO CODE</text>
  <text x="190" y="116" fill="#d97824" font-family="IBM Plex Mono, DejaVu Sans Mono, monospace" font-size="18" letter-spacing="2">NEOSANTARA-FIRST CODING AGENT</text>
</svg>
