<svg xmlns="http://www.w3.org/2000/svg" width="64" height="64" viewBox="0 0 64 64" role="img" aria-label="Neo Code icon">
  <rect width="64" height="64" rx="10" fill="#080808"/>
  <rect x="4" y="4" width="56" height="56" rx="7" fill="none" stroke="#d97824" stroke-width="2"/>
  <g shape-rendering="crispEdges">
    <rect x="11" y="10" width="10" height="16" fill="#d97824"/>
    <rect x="43" y="10" width="10" height="16" fill="#d97824"/>
    <rect x="14" y="14" width="6" height="10" fill="#f2dfbc"/>
    <rect x="44" y="14" width="6" height="10" fill="#f2dfbc"/>
    <rect x="19" y="22" width="26" height="18" fill="#d97824"/>
    <rect x="15" y="26" width="34" height="12" fill="#d97824"/>
    <rect x="20" y="39" width="24" height="10" fill="#f2dfbc"/>
    <rect x="24" y="25" width="3" height="3" fill="#f2dfbc"/>
    <rect x="27" y="28" width="3" height="3" fill="#f2dfbc"/>
    <rect x="24" y="31" width="3" height="3" fill="#f2dfbc"/>
    <rect x="31" y="31" width="7" height="3" fill="#f2dfbc"/>
    <rect x="23" y="38" width="4" height="7" fill="#050505"/>
    <rect x="38" y="38" width="4" height="7" fill="#050505"/>
    <rect x="29" y="48" width="7" height="3" fill="#050505"/>
  </g>
</svg>
