<svg xmlns="http://www.w3.org/2000/svg" width="256" height="208" viewBox="0 0 256 208" role="img" aria-label="Neo Kanci mascot">
  <rect width="256" height="208" fill="none"/>
  <g shape-rendering="crispEdges">
    <rect x="32" y="16" width="48" height="64" fill="#d97824"/>
    <rect x="176" y="16" width="48" height="64" fill="#d97824"/>
    <rect x="48" y="32" width="32" height="48" fill="#f2dfbc"/>
    <rect x="176" y="32" width="32" height="48" fill="#f2dfbc"/>
    <rect x="64" y="64" width="128" height="80" fill="#d97824"/>
    <rect x="48" y="80" width="160" height="48" fill="#d97824"/>
    <rect x="64" y="128" width="128" height="32" fill="#d97824"/>
    <rect x="80" y="128" width="96" height="48" fill="#f2dfbc"/>
    <rect x="64" y="144" width="128" height="32" fill="#f2dfbc"/>
    <rect x="96" y="80" width="16" height="16" fill="#f2dfbc"/>
    <rect x="112" y="96" width="16" height="16" fill="#f2dfbc"/>
    <rect x="96" y="112" width="16" height="16" fill="#f2dfbc"/>
    <rect x="128" y="112" width="32" height="16" fill="#f2dfbc"/>
    <rect x="80" y="128" width="16" height="32" fill="#050505"/>
    <rect x="160" y="128" width="16" height="32" fill="#050505"/>
    <rect x="112" y="160" width="32" height="16" fill="#050505"/>
  </g>
</svg>
